<?xml version="1.0" standalone="no"?>
<!DOCTYPE svg PUBLIC "-//W3C//DTD SVG 20010904//EN"
 "http://www.w3.org/TR/2001/REC-SVG-20010904/DTD/svg10.dtd">
<svg version="1.0" xmlns="http://www.w3.org/2000/svg"
 width="90.000000pt" height="113.000000pt" viewBox="0 0 90.000000 113.000000"
 preserveAspectRatio="xMidYMid meet">
<metadata>
Created by potrace 1.16, written by Peter Selinger 2001-2019
</metadata>
<g transform="translate(0.000000,113.000000) scale(0.100000,-0.100000)"
fill="#000000" stroke="none">
<path d="M675 1111 c-16 -11 -43 -37 -60 -56 l-30 -37 -115 -1 c-107 -2 -120
-4 -182 -34 -205 -97 -278 -302 -169 -475 107 -169 363 -227 561 -127 196 99
254 321 127 491 -21 29 -25 44 -25 116 -1 45 -7 94 -14 110 -17 34 -53 39 -93
13z m-109 -289 c34 -18 82 -78 89 -112 30 -138 -133 -246 -272 -179 -57 28
-86 70 -91 134 -5 62 13 102 62 140 54 41 152 49 212 17z"/>
<path d="M190 215 l-53 -54 24 -21 c13 -11 56 -36 94 -55 155 -77 357 -64 498
34 26 18 47 36 47 40 0 5 -20 32 -45 59 l-46 51 -54 -38 c-30 -21 -75 -44
-100 -51 -93 -26 -218 3 -285 66 l-26 24 -54 -55z"/>
</g>
</svg>
